# xmcd
#
# Track frame offsets:
#	150
#	10949
#	19777
#	29112
#	39709
#	49158
#	60168
#	70406
#	81416
#	91901
#	101146
#	110832
#	124064
#	132993
#	143488
#	157253
#	167799
#	180008
#
# Disc length: 2552 seconds
#
# Revision: 1
# Processed by: cddbd v1.5.1PL2 Copyright (c) Steve Scherf et al.
# Submitted via: EasyCDDAExtractor 9.0.0.1
#
DISCID=f809f612
DTITLE=The Beatles - Past Masters, Vol. 1
DYEAR=1988
DGENRE=Blues
TTITLE0=Love Me Do
TTITLE1=From Me To You
TTITLE2=Thank You Girl
TTITLE3=She Loves You
TTITLE4=I'll Get You
TTITLE5=I Want To Hold Your Hand
TTITLE6=This Boy
TTITLE7=Komm, Gib Mir Deine Hand
TTITLE8=Sie Liebt Dich
TTITLE9=Long Tall Sally
TTITLE10=I Call Your Name
TTITLE11=Slow Down
TTITLE12=Matchbox
TTITLE13=I Feel Fine
TTITLE14=She's A Woman
TTITLE15=Bad Boy
TTITLE16=Yes It Is
TTITLE17=I'm Down
EXTD=
EXTT0=
EXTT1=
EXTT2=
EXTT3=
EXTT4=
EXTT5=
EXTT6=
EXTT7=
EXTT8=
EXTT9=
EXTT10=
EXTT11=
EXTT12=
EXTT13=
EXTT14=
EXTT15=
EXTT16=
EXTT17=
PLAYORDER=
